<mxfile host="app.diagrams.net" modified="2021-04-19T08:40:53.336Z" agent="5.0 (Windows NT 10.0; Win64; x64) AppleWebKit/537.36 (KHTML, like Gecko) Chrome/91.0.4466.0 Safari/537.36 Edg/91.0.859.0" etag="iIjjxOl05cHuS6AGwZk3" version="14.5.10" type="github">
  <diagram id="5aa129d9-4b51-9b99-0a78-bb2f967fc3d4" name="Page-1">
    <mxGraphModel dx="1822" dy="794" grid="1" gridSize="10" guides="1" tooltips="1" connect="1" arrows="1" fold="1" page="0" pageScale="1" pageWidth="827" pageHeight="1169" background="#ffffff" math="0" shadow="0">
      <root>
        <mxCell id="0" />
        <mxCell id="1" parent="0" />
        <mxCell id="y1rh6phJj4241kgfLrmI-49" value="&lt;font style=&quot;font-size: 14px&quot;&gt;商家&lt;/font&gt;" style="shape=umlActor;verticalLabelPosition=bottom;verticalAlign=top;html=1;outlineConnect=0;movable=1;resizable=1;rotatable=1;deletable=1;editable=1;connectable=1;" parent="1" vertex="1">
          <mxGeometry x="-53" y="80" width="30" height="60" as="geometry" />
        </mxCell>
        <mxCell id="y1rh6phJj4241kgfLrmI-62" value="商家小程序" style="shape=umlLifeline;perimeter=lifelinePerimeter;whiteSpace=wrap;html=1;container=1;collapsible=0;recursiveResize=0;outlineConnect=0;fontSize=14;" parent="1" vertex="1">
          <mxGeometry x="590" y="80" width="120" height="1080" as="geometry" />
        </mxCell>
        <mxCell id="y1rh6phJj4241kgfLrmI-63" value="" style="html=1;points=[];perimeter=orthogonalPerimeter;fillColor=#60a917;strokeColor=#2D7600;fontColor=#ffffff;" parent="y1rh6phJj4241kgfLrmI-62" vertex="1">
          <mxGeometry x="55" y="160" width="10" height="290" as="geometry" />
        </mxCell>
        <mxCell id="QpcFcwuWjfST1NYp_s-o-11" value="" style="html=1;points=[];perimeter=orthogonalPerimeter;fillColor=#60a917;strokeColor=#2D7600;fontColor=#ffffff;" parent="y1rh6phJj4241kgfLrmI-62" vertex="1">
          <mxGeometry x="55" y="520" width="10" height="310" as="geometry" />
        </mxCell>
        <mxCell id="A0QS7YvNojqld_3xA-VV-14" value="" style="html=1;points=[];perimeter=orthogonalPerimeter;fillColor=#60a917;strokeColor=#2D7600;fontColor=#ffffff;" vertex="1" parent="y1rh6phJj4241kgfLrmI-62">
          <mxGeometry x="55" y="940" width="10" height="60" as="geometry" />
        </mxCell>
        <mxCell id="y1rh6phJj4241kgfLrmI-64" value="&lt;font style=&quot;font-size: 14px&quot;&gt;科脉微平台系统&lt;/font&gt;" style="shape=umlLifeline;perimeter=lifelinePerimeter;whiteSpace=wrap;html=1;container=1;collapsible=0;recursiveResize=0;outlineConnect=0;" parent="1" vertex="1">
          <mxGeometry x="120" y="80" width="120" height="1080" as="geometry" />
        </mxCell>
        <mxCell id="y1rh6phJj4241kgfLrmI-65" value="" style="html=1;points=[];perimeter=orthogonalPerimeter;fillColor=#1ba1e2;strokeColor=#006EAF;fontColor=#ffffff;" parent="y1rh6phJj4241kgfLrmI-64" vertex="1">
          <mxGeometry x="54" y="120" width="10" height="40" as="geometry" />
        </mxCell>
        <mxCell id="QpcFcwuWjfST1NYp_s-o-14" value="" style="html=1;points=[];perimeter=orthogonalPerimeter;rounded=0;shadow=0;comic=0;labelBackgroundColor=none;strokeColor=#006EAF;strokeWidth=1;fontFamily=Verdana;fontSize=12;fontColor=#ffffff;align=center;fillColor=#006EAF;" parent="y1rh6phJj4241kgfLrmI-64" vertex="1">
          <mxGeometry x="55" y="590" width="10" height="130" as="geometry" />
        </mxCell>
        <mxCell id="0CgtTunisocNIU1OMhdK-7" value="" style="html=1;points=[];perimeter=orthogonalPerimeter;fillColor=#1ba1e2;strokeColor=#006EAF;fontColor=#ffffff;" parent="y1rh6phJj4241kgfLrmI-64" vertex="1">
          <mxGeometry x="55" y="250" width="10" height="80" as="geometry" />
        </mxCell>
        <mxCell id="A0QS7YvNojqld_3xA-VV-10" value="" style="html=1;points=[];perimeter=orthogonalPerimeter;rounded=0;shadow=0;comic=0;labelBackgroundColor=none;strokeColor=#006EAF;strokeWidth=1;fontFamily=Verdana;fontSize=12;fontColor=#ffffff;align=center;fillColor=#006EAF;" vertex="1" parent="y1rh6phJj4241kgfLrmI-64">
          <mxGeometry x="55" y="885" width="10" height="45" as="geometry" />
        </mxCell>
        <mxCell id="y1rh6phJj4241kgfLrmI-76" value="" style="endArrow=none;dashed=1;html=1;movable=1;resizable=1;rotatable=1;deletable=1;editable=1;connectable=1;" parent="1" edge="1">
          <mxGeometry width="50" height="50" relative="1" as="geometry">
            <mxPoint x="-38" y="960" as="sourcePoint" />
            <mxPoint x="-38.5" y="160" as="targetPoint" />
          </mxGeometry>
        </mxCell>
        <mxCell id="y1rh6phJj4241kgfLrmI-77" value="&lt;div style=&quot;text-align: left ; font-size: 14px&quot;&gt;&lt;font color=&quot;#333333&quot;&gt;扫小程序台位码打开点餐页面&lt;/font&gt;&lt;/div&gt;" style="html=1;verticalAlign=bottom;endArrow=block;labelBackgroundColor=none;fontFamily=Verdana;fontSize=14;edgeStyle=elbowEdgeStyle;elbow=vertical;" parent="1" edge="1">
          <mxGeometry x="-0.1041" y="10" relative="1" as="geometry">
            <mxPoint x="430" y="240" as="sourcePoint" />
            <mxPoint x="649.5" y="240" as="targetPoint" />
            <mxPoint as="offset" />
          </mxGeometry>
        </mxCell>
        <mxCell id="QpcFcwuWjfST1NYp_s-o-5" value="&lt;span style=&quot;color: rgb(51 , 51 , 51) ; text-align: left&quot;&gt;&lt;font style=&quot;font-size: 14px&quot;&gt;维护门店及菜品信息&lt;/font&gt;&lt;/span&gt;" style="html=1;verticalAlign=bottom;endArrow=block;labelBackgroundColor=none;fontFamily=Verdana;fontSize=12;edgeStyle=elbowEdgeStyle;elbow=vertical;" parent="1" edge="1">
          <mxGeometry x="-0.1041" y="10" relative="1" as="geometry">
            <mxPoint x="-40" y="210" as="sourcePoint" />
            <mxPoint x="170" y="210" as="targetPoint" />
            <mxPoint as="offset" />
            <Array as="points">
              <mxPoint x="65" y="210" />
            </Array>
          </mxGeometry>
        </mxCell>
        <mxCell id="QpcFcwuWjfST1NYp_s-o-9" value="&lt;span style=&quot;font-size: 14px&quot;&gt;用户&lt;/span&gt;" style="shape=umlActor;verticalLabelPosition=bottom;verticalAlign=top;html=1;outlineConnect=0;movable=1;resizable=1;rotatable=1;deletable=1;editable=1;connectable=1;" parent="1" vertex="1">
          <mxGeometry x="410" y="80" width="30" height="60" as="geometry" />
        </mxCell>
        <mxCell id="QpcFcwuWjfST1NYp_s-o-10" value="" style="endArrow=none;dashed=1;html=1;movable=1;resizable=1;rotatable=1;deletable=1;editable=1;connectable=1;startArrow=none;" parent="1" source="0CgtTunisocNIU1OMhdK-9" edge="1">
          <mxGeometry width="50" height="50" relative="1" as="geometry">
            <mxPoint x="425" y="760" as="sourcePoint" />
            <mxPoint x="424.5" y="160" as="targetPoint" />
          </mxGeometry>
        </mxCell>
        <mxCell id="QpcFcwuWjfST1NYp_s-o-12" value="&lt;div style=&quot;text-align: left ; font-size: 14px&quot;&gt;&lt;font color=&quot;#333333&quot;&gt;用户点餐下单且支付&lt;/font&gt;&lt;/div&gt;" style="html=1;verticalAlign=bottom;endArrow=block;labelBackgroundColor=none;fontFamily=Verdana;fontSize=14;edgeStyle=elbowEdgeStyle;elbow=vertical;" parent="1" edge="1">
          <mxGeometry x="-0.1041" y="10" relative="1" as="geometry">
            <mxPoint x="430" y="610" as="sourcePoint" />
            <mxPoint x="645" y="610" as="targetPoint" />
            <mxPoint as="offset" />
          </mxGeometry>
        </mxCell>
        <mxCell id="QpcFcwuWjfST1NYp_s-o-13" value="&lt;div style=&quot;text-align: left ; font-size: 14px&quot;&gt;调用科脉微平台菜品接口&lt;/div&gt;" style="html=1;verticalAlign=bottom;endArrow=block;labelBackgroundColor=none;fontFamily=Verdana;fontSize=14;edgeStyle=elbowEdgeStyle;elbow=vertical;" parent="1" edge="1">
          <mxGeometry x="0.671" y="-25" relative="1" as="geometry">
            <mxPoint x="725.5" y="335" as="sourcePoint" />
            <mxPoint x="179.5" y="335" as="targetPoint" />
            <mxPoint as="offset" />
            <Array as="points">
              <mxPoint x="910" y="335" />
            </Array>
          </mxGeometry>
        </mxCell>
        <mxCell id="QpcFcwuWjfST1NYp_s-o-16" value="&lt;div style=&quot;text-align: left ; font-size: 14px&quot;&gt;&lt;font color=&quot;#333333&quot;&gt;返回订单号&lt;/font&gt;&lt;/div&gt;" style="html=1;verticalAlign=bottom;endArrow=block;labelBackgroundColor=none;fontFamily=Verdana;fontSize=14;edgeStyle=elbowEdgeStyle;elbow=vertical;" parent="1" target="0CgtTunisocNIU1OMhdK-2" edge="1">
          <mxGeometry x="-0.1041" y="10" relative="1" as="geometry">
            <mxPoint x="190" y="785" as="sourcePoint" />
            <mxPoint x="649.5" y="785" as="targetPoint" />
            <mxPoint as="offset" />
          </mxGeometry>
        </mxCell>
        <mxCell id="0CgtTunisocNIU1OMhdK-2" value="&lt;span style=&quot;font-size: 14px&quot;&gt;商户系统&lt;/span&gt;" style="shape=umlLifeline;perimeter=lifelinePerimeter;whiteSpace=wrap;html=1;container=1;collapsible=0;recursiveResize=0;outlineConnect=0;" parent="1" vertex="1">
          <mxGeometry x="840" y="80" width="120" height="1080" as="geometry" />
        </mxCell>
        <mxCell id="0CgtTunisocNIU1OMhdK-3" value="" style="html=1;points=[];perimeter=orthogonalPerimeter;fillColor=#1ba1e2;strokeColor=#006EAF;fontColor=#ffffff;" parent="0CgtTunisocNIU1OMhdK-2" vertex="1">
          <mxGeometry x="55" y="190" width="10" height="210" as="geometry" />
        </mxCell>
        <mxCell id="0CgtTunisocNIU1OMhdK-4" value="" style="html=1;points=[];perimeter=orthogonalPerimeter;rounded=0;shadow=0;comic=0;labelBackgroundColor=none;strokeColor=#006EAF;strokeWidth=1;fontFamily=Verdana;fontSize=12;fontColor=#ffffff;align=center;fillColor=#006EAF;" parent="0CgtTunisocNIU1OMhdK-2" vertex="1">
          <mxGeometry x="54" y="540" width="10" height="240" as="geometry" />
        </mxCell>
        <mxCell id="0CgtTunisocNIU1OMhdK-6" value="&lt;div style=&quot;text-align: left ; font-size: 14px&quot;&gt;&lt;font color=&quot;#333333&quot;&gt;调用菜品接口&lt;/font&gt;&lt;/div&gt;" style="html=1;verticalAlign=bottom;endArrow=block;labelBackgroundColor=none;fontFamily=Verdana;fontSize=14;edgeStyle=elbowEdgeStyle;elbow=vertical;" parent="1" edge="1">
          <mxGeometry x="-0.1041" y="10" relative="1" as="geometry">
            <mxPoint x="660" y="274" as="sourcePoint" />
            <mxPoint x="899.5" y="274" as="targetPoint" />
            <mxPoint as="offset" />
          </mxGeometry>
        </mxCell>
        <mxCell id="0CgtTunisocNIU1OMhdK-8" value="&lt;div style=&quot;text-align: left&quot;&gt;&lt;span style=&quot;font-size: 14px&quot;&gt;&lt;font color=&quot;#333333&quot;&gt;返回菜品相关数据&lt;/font&gt;&lt;/span&gt;&lt;/div&gt;" style="html=1;verticalAlign=bottom;endArrow=block;labelBackgroundColor=none;fontFamily=Verdana;fontSize=12;edgeStyle=elbowEdgeStyle;elbow=vertical;" parent="1" edge="1">
          <mxGeometry x="-0.1041" y="10" relative="1" as="geometry">
            <mxPoint x="180" y="384" as="sourcePoint" />
            <mxPoint x="899.5" y="384" as="targetPoint" />
            <mxPoint as="offset" />
            <Array as="points">
              <mxPoint x="285" y="384" />
            </Array>
          </mxGeometry>
        </mxCell>
        <mxCell id="0CgtTunisocNIU1OMhdK-9" value="" style="html=1;points=[];perimeter=orthogonalPerimeter;fillColor=#1ba1e2;strokeColor=#006EAF;fontColor=#ffffff;" parent="1" vertex="1">
          <mxGeometry x="420" y="230" width="10" height="300" as="geometry" />
        </mxCell>
        <mxCell id="0CgtTunisocNIU1OMhdK-10" value="" style="endArrow=none;dashed=1;html=1;movable=1;resizable=1;rotatable=1;deletable=1;editable=1;connectable=1;startArrow=none;" parent="1" target="0CgtTunisocNIU1OMhdK-9" edge="1" source="A0QS7YvNojqld_3xA-VV-15">
          <mxGeometry width="50" height="50" relative="1" as="geometry">
            <mxPoint x="425" y="1160" as="sourcePoint" />
            <mxPoint x="424.5" y="160" as="targetPoint" />
          </mxGeometry>
        </mxCell>
        <mxCell id="0CgtTunisocNIU1OMhdK-11" value="&lt;div style=&quot;text-align: left ; font-size: 14px&quot;&gt;返回菜品相关数据&lt;/div&gt;" style="html=1;verticalAlign=bottom;endArrow=block;labelBackgroundColor=none;fontFamily=Verdana;fontSize=14;edgeStyle=elbowEdgeStyle;elbow=vertical;" parent="1" edge="1">
          <mxGeometry x="0.4023" y="-13" relative="1" as="geometry">
            <mxPoint x="716" y="453" as="sourcePoint" />
            <mxPoint x="650" y="453" as="targetPoint" />
            <mxPoint as="offset" />
            <Array as="points">
              <mxPoint x="900.5" y="453" />
            </Array>
          </mxGeometry>
        </mxCell>
        <mxCell id="0CgtTunisocNIU1OMhdK-12" value="&lt;div style=&quot;text-align: left ; font-size: 14px&quot;&gt;调用科脉微平台下单接口&lt;/div&gt;" style="html=1;verticalAlign=bottom;endArrow=block;labelBackgroundColor=none;fontFamily=Verdana;fontSize=14;edgeStyle=elbowEdgeStyle;elbow=vertical;" parent="1" edge="1" target="y1rh6phJj4241kgfLrmI-64">
          <mxGeometry x="0.4416" y="-14" relative="1" as="geometry">
            <mxPoint x="726" y="680" as="sourcePoint" />
            <mxPoint x="680" y="680" as="targetPoint" />
            <mxPoint as="offset" />
            <Array as="points">
              <mxPoint x="900" y="680" />
            </Array>
          </mxGeometry>
        </mxCell>
        <mxCell id="A0QS7YvNojqld_3xA-VV-1" value="&lt;div style=&quot;text-align: left ; font-size: 14px&quot;&gt;&lt;font color=&quot;#333333&quot;&gt;调用下单且支付接口&lt;/font&gt;&lt;/div&gt;" style="html=1;verticalAlign=bottom;endArrow=block;labelBackgroundColor=none;fontFamily=Verdana;fontSize=14;edgeStyle=elbowEdgeStyle;elbow=vertical;" edge="1" parent="1" target="0CgtTunisocNIU1OMhdK-2">
          <mxGeometry x="-0.1041" y="10" relative="1" as="geometry">
            <mxPoint x="660" y="630" as="sourcePoint" />
            <mxPoint x="865" y="630" as="targetPoint" />
            <mxPoint as="offset" />
          </mxGeometry>
        </mxCell>
        <mxCell id="A0QS7YvNojqld_3xA-VV-2" value="&lt;span style=&quot;font-size: 14px&quot;&gt;向门店POS推送订单信息&lt;/span&gt;" style="html=1;verticalAlign=bottom;endArrow=block;labelBackgroundColor=#ffffff;fontFamily=Verdana;fontSize=12;elbow=vertical;edgeStyle=orthogonalEdgeStyle;exitX=1.066;exitY=0.713;exitPerimeter=0;rounded=0;" edge="1" parent="1">
          <mxGeometry x="0.1062" y="40" relative="1" as="geometry">
            <mxPoint x="190.65999999999985" y="700.0100000000002" as="sourcePoint" />
            <mxPoint x="185" y="739.0999999999999" as="targetPoint" />
            <Array as="points">
              <mxPoint x="240" y="700.1" />
              <mxPoint x="240" y="739.1" />
            </Array>
            <mxPoint as="offset" />
          </mxGeometry>
        </mxCell>
        <mxCell id="A0QS7YvNojqld_3xA-VV-4" value="&lt;div style=&quot;text-align: left ; font-size: 14px&quot;&gt;返回订单信息&lt;/div&gt;" style="html=1;verticalAlign=bottom;endArrow=block;labelBackgroundColor=none;fontFamily=Verdana;fontSize=14;edgeStyle=elbowEdgeStyle;elbow=vertical;" edge="1" parent="1">
          <mxGeometry x="0.4023" y="-13" relative="1" as="geometry">
            <mxPoint x="716" y="840" as="sourcePoint" />
            <mxPoint x="650" y="840" as="targetPoint" />
            <mxPoint as="offset" />
            <Array as="points">
              <mxPoint x="900.5" y="840" />
            </Array>
          </mxGeometry>
        </mxCell>
        <mxCell id="A0QS7YvNojqld_3xA-VV-5" value="&lt;div style=&quot;text-align: left ; font-size: 14px&quot;&gt;展示订单信息页面&lt;/div&gt;" style="html=1;verticalAlign=bottom;endArrow=block;labelBackgroundColor=none;fontFamily=Verdana;fontSize=14;edgeStyle=elbowEdgeStyle;elbow=vertical;" edge="1" parent="1">
          <mxGeometry x="0.4023" y="-13" relative="1" as="geometry">
            <mxPoint x="466" y="900" as="sourcePoint" />
            <mxPoint x="430" y="900" as="targetPoint" />
            <mxPoint as="offset" />
            <Array as="points">
              <mxPoint x="650.5" y="900" />
            </Array>
          </mxGeometry>
        </mxCell>
        <mxCell id="A0QS7YvNojqld_3xA-VV-6" value="&lt;div style=&quot;text-align: left ; font-size: 14px&quot;&gt;展示点餐页面&lt;/div&gt;" style="html=1;verticalAlign=bottom;endArrow=block;labelBackgroundColor=none;fontFamily=Verdana;fontSize=14;edgeStyle=elbowEdgeStyle;elbow=vertical;" edge="1" parent="1">
          <mxGeometry x="0.4023" y="-13" relative="1" as="geometry">
            <mxPoint x="476" y="520" as="sourcePoint" />
            <mxPoint x="430" y="520" as="targetPoint" />
            <mxPoint as="offset" />
            <Array as="points">
              <mxPoint x="650" y="520" />
            </Array>
          </mxGeometry>
        </mxCell>
        <mxCell id="A0QS7YvNojqld_3xA-VV-7" value="" style="html=1;points=[];perimeter=orthogonalPerimeter;fillColor=#1ba1e2;strokeColor=#006EAF;fontColor=#ffffff;" vertex="1" parent="1">
          <mxGeometry x="420" y="600" width="10" height="310" as="geometry" />
        </mxCell>
        <mxCell id="A0QS7YvNojqld_3xA-VV-11" value="&lt;div style=&quot;text-align: left&quot;&gt;&lt;font color=&quot;#333333&quot;&gt;&lt;span style=&quot;font-size: 14px&quot;&gt;通知用户可以取餐&lt;/span&gt;&lt;/font&gt;&lt;/div&gt;" style="html=1;verticalAlign=bottom;endArrow=block;labelBackgroundColor=none;fontFamily=Verdana;fontSize=12;edgeStyle=elbowEdgeStyle;elbow=vertical;" edge="1" parent="1">
          <mxGeometry x="-0.0549" y="10" relative="1" as="geometry">
            <mxPoint x="175.5" y="970" as="sourcePoint" />
            <mxPoint x="895" y="970" as="targetPoint" />
            <mxPoint as="offset" />
            <Array as="points">
              <mxPoint x="280.5" y="970" />
            </Array>
          </mxGeometry>
        </mxCell>
        <mxCell id="A0QS7YvNojqld_3xA-VV-12" value="" style="html=1;points=[];perimeter=orthogonalPerimeter;rounded=0;shadow=0;comic=0;labelBackgroundColor=none;strokeColor=#006EAF;strokeWidth=1;fontFamily=Verdana;fontSize=12;fontColor=#ffffff;align=center;fillColor=#006EAF;" vertex="1" parent="1">
          <mxGeometry x="895" y="970" width="10" height="70" as="geometry" />
        </mxCell>
        <mxCell id="A0QS7YvNojqld_3xA-VV-13" value="&lt;div style=&quot;text-align: left ; font-size: 14px&quot;&gt;发送取餐订阅消息&lt;/div&gt;" style="html=1;verticalAlign=bottom;endArrow=block;labelBackgroundColor=none;fontFamily=Verdana;fontSize=14;edgeStyle=elbowEdgeStyle;elbow=vertical;" edge="1" parent="1">
          <mxGeometry x="0.4023" y="-13" relative="1" as="geometry">
            <mxPoint x="710.5" y="1030" as="sourcePoint" />
            <mxPoint x="660" y="1030" as="targetPoint" />
            <mxPoint as="offset" />
            <Array as="points">
              <mxPoint x="895" y="1030" />
            </Array>
          </mxGeometry>
        </mxCell>
        <mxCell id="A0QS7YvNojqld_3xA-VV-15" value="" style="html=1;points=[];perimeter=orthogonalPerimeter;fillColor=#1ba1e2;strokeColor=#006EAF;fontColor=#ffffff;" vertex="1" parent="1">
          <mxGeometry x="420" y="1070" width="10" height="30" as="geometry" />
        </mxCell>
        <mxCell id="A0QS7YvNojqld_3xA-VV-16" value="" style="endArrow=none;dashed=1;html=1;movable=1;resizable=1;rotatable=1;deletable=1;editable=1;connectable=1;startArrow=none;" edge="1" parent="1" target="A0QS7YvNojqld_3xA-VV-15">
          <mxGeometry width="50" height="50" relative="1" as="geometry">
            <mxPoint x="425" y="1160" as="sourcePoint" />
            <mxPoint x="425" y="530" as="targetPoint" />
          </mxGeometry>
        </mxCell>
        <mxCell id="A0QS7YvNojqld_3xA-VV-17" value="&lt;div style=&quot;text-align: left ; font-size: 14px&quot;&gt;显示取餐订阅消息&lt;/div&gt;" style="html=1;verticalAlign=bottom;endArrow=block;labelBackgroundColor=none;fontFamily=Verdana;fontSize=14;edgeStyle=elbowEdgeStyle;elbow=vertical;" edge="1" parent="1">
          <mxGeometry x="0.4023" y="-13" relative="1" as="geometry">
            <mxPoint x="470.5" y="1070" as="sourcePoint" />
            <mxPoint x="430" y="1070" as="targetPoint" />
            <mxPoint as="offset" />
            <Array as="points">
              <mxPoint x="655" y="1070" />
            </Array>
          </mxGeometry>
        </mxCell>
      </root>
    </mxGraphModel>
  </diagram>
</mxfile>
